<svg width="130" height="130" viewBox="0 0 130 130" fill="none" xmlns="http://www.w3.org/2000/svg">
<path fill-rule="evenodd" clip-rule="evenodd" d="M65 0.757324C29.525 0.757324 0.5 29.7823 0.5 65.2573C0.5 100.732 29.525 129.757 65 129.757C100.475 129.757 129.5 100.732 129.5 65.2573C129.5 29.7823 100.798 0.757324 65 0.757324ZM94.67 93.9598C93.38 95.8948 91.1225 96.5398 89.1875 95.2498C74.03 85.8973 55.0025 83.9623 32.4275 89.1223C30.17 89.7673 28.235 88.1548 27.59 86.2198C26.945 83.9623 28.5575 82.0273 30.4925 81.3823C55.0025 75.8998 76.2875 78.1573 93.0575 88.4773C95.315 89.4448 95.6375 92.0248 94.67 93.9598ZM102.41 76.2223C100.798 78.4798 97.895 79.4473 95.6375 77.8348C78.2225 67.1923 51.7775 63.9673 31.46 70.4173C28.88 71.0623 25.9775 69.7723 25.3325 67.1923C24.6875 64.6123 25.9775 61.7098 28.5575 61.0648C52.1 53.9698 81.125 57.5173 101.12 69.7723C103.055 70.7398 104.022 73.9648 102.41 76.2223ZM103.055 58.1623C82.415 45.9073 47.9075 44.6173 28.235 50.7448C25.01 51.7123 21.785 49.7773 20.8175 46.8748C19.85 43.6498 21.785 40.4248 24.6875 39.4573C47.585 32.6848 85.3175 33.9748 109.182 48.1648C112.085 49.7773 113.052 53.6473 111.44 56.5498C109.827 58.8073 105.958 59.7748 103.055 58.1623Z" fill="white"/>
</svg>
